:SAMPLES-PER-SECOND 30
:FULLY-SPECIFIED
:DEGREES
1667
root  61.6265 32.0899 -0.796525 11.0807 84.6709 18.8544
RightUpLeg  -36.7109 -3.13464 -8.93564
RightLeg  63.1558 1.86262 3.42527
RightFoot  -18.2052 0.0895958 3.55062
RightToes  7.56698e-010 0 -3.6325e-017
Spine  56.7945 2.1673 -21.8193
Spine1  -34.383 -4.40593 38.7004
HEad  -26.8962 27.5772 -38.0326
LeftShoulder1  1.26711 -6.16643 -5.28532
LeftArm  -30.9933 -57.2519 -34.7924
LeftForeArm  -12.2072 -58.6341 -19.903
LeftHand  -0.325541 7.71671 -13.1111
RightShoulder  0.781262 -66.2218 -10.8773
RightArm  41.9312 40.1097 127.219
RightForeArm  -19.2802 75.9746 62.9233
RightHand  -4.89113 24.6545 -19.0012
LeftUpLeg  -33.1269 8.79517 17.2625
LeftLeg  83.7746 -0.443591 -2.50748
LeftFoot  1.12448 0.452517 -4.23205
LeftToes  -2.88401e-009 5.30678e-011 -1.08654e-010
1668
root  62.1502 32.672 -0.504932 16.8083 84.9495 24.3848
RightUpLeg  -34.444 -3.25167 -8.9106
RightLeg  61.0018 1.84393 3.0787
RightFoot  -18.3342 0.0773501 3.29782
RightToes  7.56698e-010 0 -3.6325e-017
Spine  55.8975 2.47188 -22.6208
Spine1  -34.1302 -4.38169 38.9038
HEad  -26.2095 27.5718 -38.1565
LeftShoulder1  1.16516 -6.1409 -4.13352
LeftArm  -33.19 -58.2563 -33.1964
LeftForeArm  -13.2155 -56.9862 -18.6661
LeftHand  -0.366679 8.16476 -12.5795
RightShoulder  -1.16083 -66.1283 -7.82121
RightArm  44.3327 41.9645 128.498
RightForeArm  -22.0265 75.3976 58.597
RightHand  -4.36166 21.4414 -19.1268
LeftUpLeg  -33.4889 9.47158 17.0916
LeftLeg  78.7252 -0.480534 -1.27256
LeftFoot  -0.612214 0.488539 -5.18983
LeftToes  -2.88401e-009 5.30678e-011 -1.08654e-010
1669
root  62.6432 33.2411 -0.268523 24.5986 85.7893 31.6426
RightUpLeg  -32.3756 -3.66279 -8.81862
RightLeg  58.5866 1.61486 2.38066
RightFoot  -18.3989 0.0743559 3.22513
RightToes  7.56698e-010 0 -3.6325e-017
Spine  54.704 2.47954 -23.2539
Spine1  -33.4682 -4.59419 39.5518
HEad  -25.6901 27.0499 -38.0159
LeftShoulder1  1.11913 -6.08606 -3.66835
LeftArm  -36.1241 -59.8106 -30.1051
LeftForeArm  -14.985 -54.982 -17.3799
LeftHand  -0.410838 8.43182 -13.0836
RightShoulder  -0.338798 -67.2844 -9.12949
RightArm  45.6282 42.5686 131.559
RightForeArm  -26.1479 75.1423 56.98
RightHand  -4.62636 17.568 -23.2755
LeftUpLeg  -33.9155 9.52049 16.7598
LeftLeg  71.6424 -0.793705 -1.67733
LeftFoot  -2.36318 0.548284 -6.7851
LeftToes  -2.88401e-009 5.30678e-011 -1.08654e-010
1670
root  63.136 33.7403 -0.0756695 35.357 86.5185 41.9865
RightUpLeg  -30.3444 -3.52876 -8.78149
RightLeg  56.3773 1.1001 1.33443
RightFoot  -18.5879 0.100357 3.57281
RightToes  7.56698e-010 0 -3.6325e-017
Spine  54.2093 2.38219 -23.9018
Spine1  -33.6583 -4.76975 40.2143
HEad  -25.7357 26.6965 -37.8773
LeftShoulder1  0.944199 -5.55287 -2.25459
LeftArm  -38.7367 -61.2674 -28.0926
LeftForeArm  -16.4247 -52.1905 -15.7325
LeftHand  -0.356571 7.85324 -13.7218
RightShoulder  -0.0503305 -67.3513 -9.51434
RightArm  47.8573 43.422 134.177
RightForeArm  -32.2883 75.1235 56.8887
RightHand  -5.97144 18.3594 -28.9211
LeftUpLeg  -33.7904 9.53452 16.3604
LeftLeg  63.1385 -1.66974 -2.95922
LeftFoot  -3.01799 0.562964 -7.46914
LeftToes  -2.88401e-009 5.30678e-011 -1.08654e-010
1671
root  63.624 34.1686 0.0608732 49.481 86.923 55.7889
RightUpLeg  -28.497 -3.52361 -8.92971
RightLeg  54.4907 0.650288 0.563292
RightFoot  -18.7078 0.109752 3.67307
RightToes  7.56698e-010 0 -3.6325e-017
Spine  53.8077 2.62041 -25.295
Spine1  -33.3971 -5.00715 42.0262
HEad  -30.8108 26.075 -41.9037
LeftShoulder1  0.697978 -4.02147 -0.896803
LeftArm  -42.1221 -62.8305 -25.9479
LeftForeArm  -18.2751 -49.3082 -14.2992
LeftHand  -0.415243 8.28495 -13.877
RightShoulder  -4.52469 -65.3729 -2.42743
RightArm  52.3774 46.316 136.12
RightForeArm  -37.7896 74.1737 51.6924
RightHand  -6.04774 18.5398 -29.0239
LeftUpLeg  -33.1511 9.86984 15.6282
LeftLeg  53.6688 -2.41994 -3.09743
LeftFoot  -3.14097 0.575852 -7.80009
LeftToes  -2.88401e-009 5.30678e-011 -1.08654e-010
1672
root  64.0864 34.5154 0.156668 60.7377 87.0143 66.5793
RightUpLeg  -27.1254 -3.27083 -8.9706
RightLeg  52.8592 0.14081 -0.198177
RightFoot  -18.6987 0.0984867 3.50139
RightToes  7.56698e-010 0 -3.6325e-017
Spine  53.1985 2.80841 -26.395
Spine1  -33.1532 -5.13593 42.849
HEad  -33.7537 26.3263 -45.4353
LeftShoulder1  0.476266 -2.56846 0.604876
LeftArm  -45.2672 -64.4632 -24.2686
LeftForeArm  -20.1197 -46.3732 -13.0159
LeftHand  -0.468736 8.72236 -13.7936
RightShoulder  -3.97884 -65.8809 -3.36132
RightArm  55.2986 46.2584 140.161
RightForeArm  -35.8582 73.2805 47.867
RightHand  -5.01638 16.4201 -26.4897
LeftUpLeg  -32.276 10.264 14.977
LeftLeg  44.1712 -2.65763 -2.35724
LeftFoot  -3.8823 0.666131 -9.82583
LeftToes  -2.88401e-009 5.30678e-011 -1.08654e-010
1673
root  64.5378 34.7441 0.151037 71.1449 87.5491 76.4228
RightUpLeg  -26.113 -3.28995 -8.67715
RightLeg  51.7334 -0.276464 -0.756596
RightFoot  -18.8331 0.105941 3.56624
RightToes  7.56698e-010 0 -3.6325e-017
Spine  52.1602 2.36276 -26.8057
Spine1  -32.2988 -5.67462 43.6399
HEad  -36.364 25.8579 -47.8722
LeftShoulder1  0.430589 -1.44002 -0.227716
LeftArm  -49.283 -66.1516 -19.1514
LeftForeArm  -22.6428 -43.6921 -12.0289
LeftHand  -0.479085 8.85808 -13.5796
RightShoulder  -6.08443 -65.0613 0.267374
RightArm  61.0168 47.2475 144.401
RightForeArm  -30.3512 71.3526 41.2391
RightHand  -3.52155 11.136 -24.8259
LeftUpLeg  -31.7868 9.83043 14.7723
LeftLeg  35.5783 -3.48706 -2.29682
LeftFoot  -3.91295 0.656598 -9.73212
LeftToes  -2.88401e-009 5.30678e-011 -1.08654e-010
1674
root  64.9784 34.897 0.0204512 65.6487 87.7782 70.2625
RightUpLeg  -25.6184 -2.74425 -8.48144
RightLeg  50.8753 -0.581714 -1.13975
RightFoot  -18.9399 0.114233 3.65227
RightToes  7.56698e-010 0 -3.6325e-017
Spine  51.7982 2.50816 -27.5777
Spine1  -32.0621 -5.66541 45.2173
HEad  -36.2724 26.9523 -48.9103
LeftShoulder1  0.231173 0.296992 1.4362
LeftArm  -53.8667 -67.0556 -16.2516
LeftForeArm  -23.5036 -40.726 -10.9504
LeftHand  -0.482496 8.71371 -14.2885
RightShoulder  -10.3033 -61.5764 8.08664
RightArm  68.7541 50.3252 146.879
RightForeArm  -27.525 68.4417 33.8253
RightHand  -2.76104 6.45459 -26.8849
LeftUpLeg  -31.018 9.28543 14.7683
LeftLeg  28.1099 -5.17028 -2.6559
LeftFoot  -3.69889 0.763579 -11.0754
LeftToes  -2.88401e-009 5.30678e-011 -1.08654e-010
